<svg xmlns="http://www.w3.org/2000/svg" xmlns:d="http://www.mathworks.com/blockgraphics" xmlns:xlink="http://www.w3.org/1999/xlink" version="1.1" id="svg" width="160" height="100" viewBox="0 0 160 100" d:options="ScalingOnResizeMax:2;Rotate:Off;Resize:FitToBlock;" fill="none">
	<g id="part" title="part_0" ie-ports="left:simulink,top:,right:simulink*simulink,bottom:">
		<path id="path" stroke="#333333" stroke-miterlimit="10" d=" M 86.5,65 L 96.5,60.25"/>
		<path id="path_1" stroke="#333333" stroke-miterlimit="10" d=" M 86.5,75 L 96.5,70"/>
		<path id="path_2" stroke="#333333" stroke-miterlimit="10" d=" M 86.5,75 L 96.5,60.25"/>
		<path id="path_3" stroke="#333333" stroke-miterlimit="10" d=" M 96.5,70 L 86.5,65"/>
		<path id="path_4" stroke="#333333" stroke-miterlimit="10" d=" M 106.5,60.5 L 96.5,70"/>
		<path id="path_5" stroke="#333333" stroke-miterlimit="10" d=" M 106.5,79.5 L 96.5,70"/>
		<path id="path_6" stroke="#333333" stroke-miterlimit="10" d=" M 96.5,79.75 L 86.5,65"/>
		<path id="path_7" stroke="#333333" stroke-miterlimit="10" d=" M 86.5,75 L 96.5,79.75"/>
		<path id="path_8" stroke="#333333" stroke-miterlimit="10" d=" M 96.5,79.75 L 106.5,70"/>
		<path id="path_9" stroke="#333333" stroke-miterlimit="10" d=" M 96.5,79.75 L 106.5,60.5"/>
		<path id="path_10" stroke="#333333" stroke-miterlimit="10" d=" M 96.5,60.25 L 106.5,70"/>
		<path id="path_11" stroke="#333333" stroke-miterlimit="10" d=" M 106.5,60.5 L 116.5,70"/>
		<path id="path_12" stroke="#333333" stroke-miterlimit="10" d=" M 106.5,70 H 116.5"/>
		<path id="path_13" stroke="#333333" stroke-miterlimit="10" d=" M 106.5,79.5 L 116.5,70"/>
		<path id="path_14" stroke="#333333" stroke-miterlimit="10" d=" M 96.5,60.25 L 106.5,79.5"/>
		<path id="path_15" stroke="#333333" stroke-miterlimit="10" d=" M 96.5,60.5 H 106.5"/>
		<path id="path_16" stroke="#333333" stroke-miterlimit="10" d=" M 96.5,70 H 106.5"/>
		<path id="path_17" stroke="#333333" stroke-miterlimit="10" d=" M 96.5,79.5 H 106.5"/>
		<path id="path_18" fill="#333333" stroke="#333333" d=" M 106.5,71.5 C 107.33,71.5 108,70.83 108,70 C 108,69.17 107.33,68.5 106.5,68.5 C 105.67,68.5 105,69.17 105,70 C 105,70.83 105.67,71.5 106.5,71.5 Z"/>
		<path id="path_19" fill="#333333" stroke="#333333" d=" M 116.5,71.5 C 117.33,71.5 118,70.83 118,70 C 118,69.17 117.33,68.5 116.5,68.5 C 115.67,68.5 115,69.17 115,70 C 115,70.83 115.67,71.5 116.5,71.5 Z"/>
		<path id="path_20" fill="#333333" stroke="#333333" d=" M 86.5,66.5 C 87.33,66.5 88,65.83 88,65 C 88,64.17 87.33,63.5 86.5,63.5 C 85.67,63.5 85,64.17 85,65 C 85,65.83 85.67,66.5 86.5,66.5 Z"/>
		<path id="path_21" fill="#333333" stroke="#333333" d=" M 86.5,76.5 C 87.33,76.5 88,75.83 88,75 C 88,74.17 87.33,73.5 86.5,73.5 C 85.67,73.5 85,74.17 85,75 C 85,75.83 85.67,76.5 86.5,76.5 Z"/>
		<path id="path_22" fill="#333333" stroke="#333333" d=" M 96.5,62 C 97.33,62 98,61.33 98,60.5 C 98,59.67 97.33,59 96.5,59 C 95.67,59 95,59.67 95,60.5 C 95,61.33 95.67,62 96.5,62 Z"/>
		<path id="path_23" fill="#333333" stroke="#333333" d=" M 96.5,81 C 97.33,81 98,80.33 98,79.5 C 98,78.67 97.33,78 96.5,78 C 95.67,78 95,78.67 95,79.5 C 95,80.33 95.67,81 96.5,81 Z"/>
		<path id="path_24" fill="#333333" stroke="#333333" d=" M 106.5,62 C 107.33,62 108,61.33 108,60.5 C 108,59.67 107.33,59 106.5,59 C 105.67,59 105,59.67 105,60.5 C 105,61.33 105.67,62 106.5,62 Z"/>
		<path id="path_25" fill="#333333" stroke="#333333" d=" M 106.5,81 C 107.33,81 108,80.33 108,79.5 C 108,78.67 107.33,78 106.5,78 C 105.67,78 105,78.67 105,79.5 C 105,80.33 105.67,81 106.5,81 Z"/>
		<path id="path_26" fill="#333333" stroke="#333333" d=" M 96.5,71.5 C 97.33,71.5 98,70.83 98,70 C 98,69.17 97.33,68.5 96.5,68.5 C 95.67,68.5 95,69.17 95,70 C 95,70.83 95.67,71.5 96.5,71.5 Z"/>
		<line id="line" stroke="#333333" stroke-width="3" x1="54" y1="26.5" x2="66" y2="26.5"/>
		<line id="line_27" stroke="#333333" stroke-width="3" x1="55.5" y1="25" x2="55.5" y2="37"/>
		<path id="path_28" stroke="#333333" stroke-width="3" d=" M 106,26.5 H 94 M 104.5,25 V 37"/>
		<path id="path_29" stroke="#333333" stroke-width="3" d=" M 54,72.5 H 66 M 55.5,74 V 62"/>
		<path id="path_30" fill="#D9D9D9" d=" M 72,54 V 45 L 80,49.5 V 58.5 L 72,54 Z"/>
		<path id="path_31" fill="#A6A6A6" d=" M 88,54 V 45 L 80,49.5 V 58.5 L 88,54 Z"/>
		<path id="path_32" fill="#F5F5F5" d=" M 88,45 L 80,41 L 72,45 L 80,49.5 L 88,45 Z"/>
		<path id="path_33" stroke="#616162" stroke-linecap="round" stroke-linejoin="round" d=" M 72,45 V 54 L 80,58.5 M 72,45 L 80,49.5 M 72,45 L 80,41 L 88,45 M 80,49.5 V 58.5 M 80,49.5 L 88,45 M 80,58.5 L 88,54 V 45"/>
	</g>
</svg>
